<?xml version="1.0" encoding="utf-8"?>
<!-- Generator: Adobe Illustrator 25.3.0, SVG Export Plug-In . SVG Version: 6.00 Build 0)  -->
<svg version="1.1" id="Capa_1" xmlns="http://www.w3.org/2000/svg" xmlns:xlink="http://www.w3.org/1999/xlink" x="0px" y="0px"
	 viewBox="0 0 1920 546" style="enable-background:new 0 0 1920 546;" xml:space="preserve">
<style type="text/css">
	.st0{fill:#FFFFFF;}
	.st1{fill-rule:evenodd;clip-rule:evenodd;fill:#3F8DEA;}
	.st2{fill:#2A2F36;}
	.st3{fill:#3F8DEA;}
</style>
<g>
	<g>
		<circle class="st0" cx="266.96" cy="273.5" r="182.68"/>
		<path class="st1" d="M266.96,70.54C154.87,70.54,64,161.41,64,273.5s90.87,202.96,202.96,202.96
			c112.09,0,202.96-90.87,202.96-202.96S379.05,70.54,266.96,70.54z M266.96,213.17l65.34-35.41l-29.53,54.48l-27.75,15.04
			c-2.4,1.3-5.14,2.04-8.06,2.04c-2.92,0-5.66-0.74-8.06-2.04l-27.75-15.04l-29.53-54.48L266.96,213.17z M177.25,380.13
			c-9.34,0-16.91-7.57-16.91-16.91c0-2.92,0.74-5.66,2.04-8.06v0l44.25-81.65l-44.25-81.65v0c-1.3-2.4-2.04-5.14-2.04-8.06
			c0-9.34,7.57-16.91,16.91-16.91c6.42,0,12.01,3.58,14.87,8.85l48.62,89.72c1.3,2.4,2.04,5.14,2.04,8.06
			c0,2.92-0.74,5.66-2.04,8.06v0l-48.62,89.72v0C189.26,376.55,183.67,380.13,177.25,380.13z M266.96,333.83l-65.34,35.41
			l29.53-54.48l27.75-15.04v0l0,0v0c2.4-1.3,5.14-2.04,8.06-2.04c2.92,0,5.66,0.74,8.06,2.04v0l0,0l0,0l27.75,15.04l29.53,54.48
			L266.96,333.83z M371.55,355.15L371.55,355.15c1.3,2.4,2.04,5.14,2.04,8.06c0,9.34-7.57,16.91-16.91,16.91
			c-6.42,0-12.01-3.58-14.87-8.85v0l-48.62-89.72v0c-1.3-2.4-2.04-5.14-2.04-8.06c0-2.92,0.74-5.66,2.04-8.06l48.62-89.72
			c2.86-5.27,8.45-8.85,14.87-8.85c9.34,0,16.91,7.57,16.91,16.91c0,2.92-0.74,5.66-2.04,8.06v0L327.3,273.5L371.55,355.15z"/>
	</g>
	<g>
		<g>
			<g>
				<path class="st2" d="M550.68,370.75V145.01h43.91v225.75H550.68z"/>
			</g>
			<g>
				<path class="st2" d="M793.31,334.57v36.18h-21.03c-20.1,0-33.4-8.35-37.42-24.74c-10.82,17.01-31.23,26.59-55.35,26.59
					c-34.94,0-59.07-20.41-59.07-50.1c0-30.31,25.67-50.72,67.11-50.72h45.15v-4.33c0-19.48-10.82-29.69-30.31-29.69
					c-17.62,0-28.45,8.04-30.31,21.03h-45.46c3.41-34.33,31.85-55.97,76.7-55.97c46.38,0,71.74,23.5,71.74,66.18v52.88
					c0,8.66,3.71,12.68,12.37,12.68H793.31z M732.7,301.48v-0.31h-38.04c-19.79,0-30,6.8-30,18.55c0,11.75,9.9,19.17,26.29,19.17
					C715.38,338.9,732.7,323.13,732.7,301.48z"/>
			</g>
			<g>
				<path class="st2" d="M1036.96,370.75h-49.48l-35.25-53.81l-35.57,53.81h-48.86l56.59-85.35l-54.42-80.09h47.62l34.94,50.41
					l34.64-50.41h47.31l-54.43,80.09L1036.96,370.75z"/>
			</g>
			<g>
				<path class="st2" d="M1212.73,334.57v36.18h-21.03c-20.1,0-33.4-8.35-37.42-24.74c-10.82,17.01-31.23,26.59-55.35,26.59
					c-34.94,0-59.07-20.41-59.07-50.1c0-30.31,25.67-50.72,67.11-50.72h45.15v-4.33c0-19.48-10.82-29.69-30.31-29.69
					c-17.62,0-28.45,8.04-30.31,21.03h-45.46c3.41-34.33,31.85-55.97,76.7-55.97c46.38,0,71.74,23.5,71.74,66.18v52.88
					c0,8.66,3.71,12.68,12.37,12.68H1212.73z M1152.12,301.48v-0.31h-38.04c-19.79,0-30,6.8-30,18.55c0,11.75,9.9,19.17,26.29,19.17
					C1134.8,338.9,1152.12,323.13,1152.12,301.48z"/>
			</g>
			<g>
				<path class="st2" d="M1340.61,205.31v40.2h-14.85c-30.92,0-46.69,15.77-46.69,48.24v77h-43.91V205.31h42.98v28.76
					c8.97-18.55,27.52-28.76,48.86-28.76H1340.61z"/>
			</g>
			<g>
				<path class="st2" d="M1520.48,370.75h-49.48l-35.25-53.81l-35.57,53.81h-48.86l56.59-85.35l-54.42-80.09h47.62l34.94,50.41
					l34.64-50.41h47.31l-54.43,80.09L1520.48,370.75z"/>
			</g>
			<g>
				<path class="st2" d="M1696.25,334.57v36.18h-21.03c-20.1,0-33.4-8.35-37.42-24.74c-10.82,17.01-31.23,26.59-55.35,26.59
					c-34.94,0-59.07-20.41-59.07-50.1c0-30.31,25.67-50.72,67.11-50.72h45.15v-4.33c0-19.48-10.82-29.69-30.31-29.69
					c-17.62,0-28.45,8.04-30.31,21.03h-45.46c3.41-34.33,31.85-55.97,76.7-55.97c46.38,0,71.74,23.5,71.74,66.18v52.88
					c0,8.66,3.71,12.68,12.37,12.68H1696.25z M1635.63,301.48v-0.31h-38.04c-19.79,0-30,6.8-30,18.55c0,11.75,9.9,19.17,26.29,19.17
					C1618.32,338.9,1635.63,323.13,1635.63,301.48z"/>
			</g>
		</g>
		<path class="st3" d="M1855,184.11v40.28h-48.95v53.29h-42.76v-53.29h-48.95v-40.28h48.95v-53.29h42.76v53.29H1855z"/>
	</g>
</g>
</svg>
