<svg width="247" height="67" viewBox="0 0 247 67" fill="none" xmlns="http://www.w3.org/2000/svg">
<path d="M54.1198 15.7568H17.209V52.6201H54.1198V15.7568Z" fill="white"/>
<path d="M50.673 45.2051C50.8587 45.5494 50.9647 45.9466 50.9647 46.3703C50.9647 47.7209 49.8775 48.7802 48.5517 48.7802C47.6237 48.7802 46.8282 48.277 46.4304 47.509L39.4566 34.6652C39.271 34.3209 39.1649 33.9237 39.1649 33.5C39.1649 33.0762 39.271 32.679 39.4566 32.3347L46.4039 19.4909C46.8016 18.7229 47.6237 18.2197 48.5252 18.2197C49.8775 18.2197 50.9382 19.3055 50.9382 20.6296C50.9382 21.0533 50.8321 21.4506 50.6465 21.7948L44.3091 33.5L50.673 45.2051ZM35.6648 42.1332L26.3045 47.1913L30.5471 39.379L34.5246 37.234C34.8693 37.0486 35.267 36.9426 35.6913 36.9426C36.1156 36.9426 36.5133 37.0486 36.858 37.234L40.8355 39.379L45.0781 47.1913L35.6648 42.1332ZM22.8043 48.7802C21.452 48.7802 20.3913 47.6944 20.3913 46.3703C20.3913 45.9466 20.4974 45.5494 20.683 45.2051L27.0204 33.5L20.683 21.8213C20.4974 21.477 20.3913 21.0798 20.3913 20.6561C20.3913 19.3055 21.4785 18.2462 22.8043 18.2462C23.7324 18.2462 24.5279 18.7494 24.9256 19.5174L31.8995 32.3612C32.0851 32.7055 32.1911 33.1027 32.1911 33.5264C32.1911 33.9502 32.0851 34.3474 31.8995 34.6917L24.9256 47.5355C24.5279 48.2506 23.7324 48.7802 22.8043 48.7802ZM35.6648 24.8668L45.0251 19.8087L40.7824 27.6209L36.805 29.766C36.4603 29.9513 36.0625 30.0573 35.6383 30.0573C35.214 30.0573 34.8163 29.9513 34.4715 29.766L30.4941 27.6209L26.2515 19.8087L35.6648 24.8668ZM35.6648 4.44897C19.5959 4.44897 6.5498 17.4517 6.5498 33.5264C6.5498 49.6011 19.5693 62.6039 35.6648 62.6039C51.7337 62.6039 64.7797 49.6011 64.7797 33.5264C64.7797 17.4517 51.7337 4.44897 35.6648 4.44897Z" fill="#3F8DEA"/>
<path d="M76.4209 47.3765V15.7832H81.6977V47.3765H76.4209Z" fill="white"/>
<path d="M108.32 43.0069V47.3765H105.536C102.884 47.3765 101.107 46.1583 100.683 43.8808C99.1716 46.2642 96.2548 47.6413 92.8342 47.6413C87.9817 47.6413 84.6406 44.8342 84.6406 40.7559C84.6406 36.5453 88.1408 33.7911 93.8683 33.7911H100.444V33.0231C100.444 30.0042 98.7208 28.4417 95.6714 28.4417C92.8872 28.4417 91.2167 29.6864 90.872 31.805H85.4096C85.9134 27.0911 89.8113 24.0986 95.857 24.0986C102.141 24.0986 105.615 27.3824 105.615 33.182V41.1797C105.615 42.4243 106.172 43.0069 107.445 43.0069H108.32ZM100.471 37.7899V37.4986H94.5843C91.5614 37.4986 89.9969 38.6109 89.9969 40.4911C89.9969 42.3184 91.5084 43.5101 94.0804 43.5101C97.7662 43.4836 100.471 41.0737 100.471 37.7899Z" fill="white"/>
<path d="M136.11 47.3765H130.117L124.628 39.1935L119.086 47.3765H113.146L121.26 35.5124L113.491 24.4429H119.245L124.628 32.0168L130.011 24.4429H135.765L127.996 35.5654L136.11 47.3765Z" fill="white"/>
<path d="M159.682 43.0069V47.3765H156.898C154.246 47.3765 152.47 46.1583 152.045 43.8808C150.534 46.2642 147.617 47.6413 144.197 47.6413C139.344 47.6413 136.003 44.8342 136.003 40.7559C136.003 36.5453 139.503 33.7911 145.231 33.7911H151.807V33.0231C151.807 30.0042 150.083 28.4417 147.034 28.4417C144.25 28.4417 142.579 29.6864 142.234 31.805H136.772C137.249 27.0911 141.147 24.0986 147.166 24.0986C153.451 24.0986 156.924 27.3824 156.924 33.182V41.1797C156.924 42.4243 157.481 43.0069 158.754 43.0069H159.682ZM151.833 37.7899V37.4986H145.947C142.924 37.4986 141.359 38.6109 141.359 40.4911C141.359 42.3184 142.871 43.5101 145.443 43.5101C149.102 43.4836 151.833 41.0737 151.833 37.7899Z" fill="white"/>
<path d="M176.521 24.4429V29.2362H174.611C170.236 29.2362 167.903 31.5666 167.903 36.3863V47.3765H162.626V24.4429H167.823V28.3887C169.176 25.8464 171.774 24.4429 174.717 24.4429H176.521Z" fill="white"/>
<path d="M201.393 47.3765H195.427L189.911 39.1935L184.369 47.3765H178.43L186.544 35.5124L178.774 24.4429H184.528L189.911 32.0168L195.294 24.4429H201.048L193.279 35.5654L201.393 47.3765Z" fill="white"/>
<path d="M224.965 43.0069V47.3765H222.181C219.529 47.3765 217.753 46.1583 217.329 43.8808C215.817 46.2642 212.9 47.6413 209.48 47.6413C204.627 47.6413 201.286 44.8342 201.286 40.7559C201.286 36.5453 204.786 33.7911 210.514 33.7911H217.09V33.0231C217.09 30.0042 215.366 28.4417 212.317 28.4417C209.533 28.4417 207.862 29.6864 207.517 31.805H202.055C202.532 27.0911 206.43 24.0986 212.45 24.0986C218.734 24.0986 222.208 27.3824 222.208 33.182V41.1797C222.208 42.4243 222.764 43.0069 224.037 43.0069H224.965ZM217.116 37.7899V37.4986H211.23C208.207 37.4986 206.642 38.6109 206.642 40.4911C206.642 42.3184 208.154 43.5101 210.726 43.5101C214.385 43.4836 217.116 41.0737 217.116 37.7899Z" fill="white"/>
<path d="M240.425 21.5299V25.9525H235.068V31.7786H230.375V25.9525H225.019V21.5299H230.375V15.7039H235.068V21.5299H240.425Z" fill="#3F8DEA"/>
</svg>
