<svg width="52" height="57" viewBox="0 0 52 57" fill="none" xmlns="http://www.w3.org/2000/svg">
<path d="M44.6533 56C43.7901 55.9976 42.9359 55.8242 42.1401 55.4898C41.3444 55.1554 40.6227 54.6666 40.017 54.0517L25.667 39.7857L11.317 54.061C10.3954 54.996 9.21343 55.6317 7.92526 55.8852C6.63709 56.1387 5.30244 55.9982 4.09529 55.482C2.87616 54.9916 1.83323 54.145 1.10269 53.0528C0.372153 51.9605 -0.0120383 50.6733 0.000287551 49.3593V11.6667C0.000287551 8.57248 1.22945 5.60501 3.41738 3.41709C5.6053 1.22916 8.57276 0 11.667 0L39.667 0C41.199 0 42.7161 0.301767 44.1316 0.888072C45.5471 1.47438 46.8332 2.33374 47.9165 3.41709C48.9999 4.50044 49.8593 5.78656 50.4456 7.20203C51.0319 8.61749 51.3336 10.1346 51.3336 11.6667V49.3593C51.3467 50.6723 50.9639 51.9587 50.2351 53.0508C49.5063 54.1429 48.4653 54.9902 47.248 55.482C46.4262 55.8257 45.544 56.0018 44.6533 56Z" fill="#EEEEEE"/>
</svg>
