<?xml version="1.0" encoding="UTF-8"?>
<svg width="29px" height="29px" viewBox="0 0 29 29" version="1.1" xmlns="http://www.w3.org/2000/svg" xmlns:xlink="http://www.w3.org/1999/xlink">
    <title>60457E0D-407B-4BF3-9A20-A1CB6710D233</title>
    <g id="Page-1" stroke="none" stroke-width="1" fill="none" fill-rule="evenodd">
        <g id="TheBetter-Grid-Event--Details" transform="translate(-875.000000, -973.000000)" fill="#FFA726">
            <g id="Group-6" transform="translate(514.000000, 926.000000)">
                <g id="Group-32" transform="translate(210.000000, 34.000000)">
                    <path d="M165.5,17.5571429 C165.042629,17.5571429 164.671429,17.9283429 164.671429,18.3857143 L164.671429,27.5 C164.671429,27.7286857 164.767543,27.9325143 164.917514,28.0824857 L170.7693,33.9475286 C171.092857,34.2710857 171.623557,34.2710857 171.947529,33.9475286 C172.271086,33.6235571 172.271086,33.0928571 171.947529,32.7693 L166.328571,27.1631857 L166.328571,18.3857143 C166.328571,17.9283429 165.957371,17.5571429 165.5,17.5571429 M165.5,14.6571429 C172.602929,14.6571429 178.342857,20.3970714 178.342857,27.5 C178.342857,34.6029286 172.602929,40.3428571 165.5,40.3428571 C158.397071,40.3428571 152.657143,34.6029286 152.657143,27.5 C152.657143,20.3970714 158.397071,14.6571429 165.5,14.6571429 M165.5,13 C157.5018,13 151,19.5018 151,27.5 C151,35.4986143 157.5018,42 165.5,42 C173.498614,42 180,35.4986143 180,27.5 C180,19.5018 173.498614,13 165.5,13" id="icon/clock"></path>
                </g>
            </g>
        </g>
    </g>
</svg>