<svg width="23" height="23" viewBox="0 0 23 23" fill="none" xmlns="http://www.w3.org/2000/svg">
<g clip-path="url(#clip0_2729_53820)">
<path d="M22.0417 10.5413H0.958333C0.42906 10.5413 0 10.9703 0 11.4996C0 12.0289 0.42906 12.4579 0.958333 12.4579H22.0417C22.5709 12.4579 23 12.0289 23 11.4996C23 10.9703 22.5709 10.5413 22.0417 10.5413Z" fill="#EEEEEE"/>
<path d="M22.0417 3.83374H0.958333C0.42906 3.83374 0 4.2628 0 4.79207C0 5.32134 0.42906 5.7504 0.958333 5.7504H22.0417C22.5709 5.7504 23 5.32134 23 4.79207C23 4.2628 22.5709 3.83374 22.0417 3.83374Z" fill="#EEEEEE"/>
<path d="M22.0417 17.25H0.958333C0.42906 17.25 0 17.6791 0 18.2083C0 18.7376 0.42906 19.1667 0.958333 19.1667H22.0417C22.5709 19.1667 23 18.7376 23 18.2083C23 17.6791 22.5709 17.25 22.0417 17.25Z" fill="#EEEEEE"/>
</g>
<defs>
<clipPath id="clip0_2729_53820">
<rect width="23" height="23" fill="white"/>
</clipPath>
</defs>
</svg>
