<svg width="93" height="93" viewBox="0 0 93 93" fill="none" xmlns="http://www.w3.org/2000/svg">
    <g clip-path="url(#clip0_9_222)">
        <path d="M46.5 0C37.3032 0 28.3129 2.72718 20.666 7.83666C13.0191 12.9461 7.0591 20.2085 3.53962 28.7052C0.0201478 37.202 -0.900707 46.5516 0.893505 55.5717C2.68772 64.5918 7.11641 72.8773 13.6196 79.3805C20.1227 85.8836 28.4082 90.3123 37.4283 92.1065C46.4484 93.9007 55.798 92.9799 64.2948 89.4604C72.7916 85.9409 80.0539 79.9809 85.1634 72.334C90.2728 64.6871 93 55.6968 93 46.5C93 34.1674 88.1009 22.34 79.3805 13.6195C70.66 4.89909 58.8326 0 46.5 0V0ZM46.5 85.25C38.836 85.25 31.3441 82.9774 24.9717 78.7195C18.5993 74.4615 13.6326 68.4096 10.6997 61.329C7.76679 54.2484 6.99941 46.457 8.49459 38.9403C9.98977 31.4235 13.6803 24.5189 19.0996 19.0996C24.5189 13.6803 31.4235 9.98975 38.9403 8.49457C46.457 6.99939 54.2484 7.76677 61.329 10.6997C68.4096 13.6326 74.4616 18.5993 78.7195 24.9717C82.9774 31.3441 85.25 38.836 85.25 46.5C85.25 56.7771 81.1674 66.6334 73.9004 73.9004C66.6334 81.1674 56.7772 85.25 46.5 85.25Z" fill="#EEEEEE"/>
        <path d="M39.5 60.4934L39.5001 60.4934V60.482V32.518H39.5001L39.5 32.5066C39.4993 32.4163 39.5308 32.2764 39.6792 32.1066C39.8339 31.9296 40.101 31.7428 40.4841 31.622C40.8651 31.5019 41.2993 31.4676 41.7206 31.5318C42.1434 31.5962 42.4896 31.7495 42.7276 31.9317L42.7276 31.9317L42.7313 31.9345L61.1306 45.9272C61.1309 45.9274 61.1312 45.9276 61.1314 45.9278C61.4441 46.1669 61.5 46.3886 61.5 46.5C61.5 46.6114 61.4441 46.8331 61.1314 47.0722C61.1312 47.0724 61.1309 47.0726 61.1306 47.0728L42.7313 61.0655L42.7276 61.0683C42.4896 61.2505 42.1434 61.4038 41.7206 61.4682C41.2993 61.5323 40.8651 61.4981 40.4841 61.378C40.101 61.2572 39.8339 61.0704 39.6792 60.8934C39.5308 60.7236 39.4993 60.5837 39.5 60.4934Z" stroke="white" stroke-width="3" stroke-linejoin="round"/>
    </g>
    <defs>
        <clipPath id="clip0_9_222">
            <rect width="93" height="93" fill="white"/>
        </clipPath>
    </defs>
</svg>
