<svg xmlns="http://www.w3.org/2000/svg" xmlns:xlink="http://www.w3.org/1999/xlink" width="24" height="24" viewBox="0 0 24 24">
    <defs>
        <path id="fjf7jfsw1a" d="M16.546 13c.75 0 1.41-.41 1.75-1.03l3.58-6.49c.37-.66-.11-1.48-.87-1.48h-14.8l-.94-2h-3.27v2h2l3.6 7.59-1.35 2.44c-.73 1.34.23 2.97 1.75 2.97h12v-2h-12l1.1-2h7.45zm-9.39-7h12.15l-2.76 5h-7.02l-2.37-5zm.84 12c-1.1 0-1.99.9-1.99 2s.89 2 1.99 2 2-.9 2-2-.9-2-2-2zm10 0c-1.1 0-1.99.9-1.99 2s.89 2 1.99 2 2-.9 2-2-.9-2-2-2z"/>
    </defs>
    <g fill="none" fill-rule="evenodd">
        <g>
            <g>
                <g transform="translate(-223 -631) translate(208 616) translate(15 15)">
                    <mask id="3huuw05tbb" fill="#fff">
                        <use xlink:href="#fjf7jfsw1a"/>
                    </mask>
                    <g fill="#FFF" mask="url(#3huuw05tbb)">
                        <path d="M0 0H24V24H0z"/>
                    </g>
                </g>
            </g>
        </g>
    </g>
</svg>
