<svg width="84" height="84" viewBox="0 0 84 84" fill="none" xmlns="http://www.w3.org/2000/svg">
<path d="M4.51562 57.9016V55.6333H15.2183V57.9016H11.2287V68.6457H8.50527V57.9016H4.51562Z" fill="#EEEEEE"/>
<path d="M16.9809 68.6457V55.6333H22.1222C23.1064 55.6333 23.9463 55.8091 24.642 56.1607C25.3419 56.508 25.8743 57.0015 26.2391 57.6411C26.6082 58.2765 26.7927 59.0241 26.7927 59.8839C26.7927 60.748 26.6061 61.4914 26.2328 62.1141C25.8595 62.7325 25.3186 63.2069 24.6102 63.5373C23.906 63.8677 23.0534 64.0329 22.0522 64.0329H18.6098V61.8218H21.6068C22.1328 61.8218 22.5698 61.7498 22.9176 61.6058C23.2655 61.4618 23.5242 61.2457 23.6939 60.9577C23.8678 60.6697 23.9548 60.3118 23.9548 59.8839C23.9548 59.4519 23.8678 59.0876 23.6939 58.7911C23.5242 58.4946 23.2633 58.2701 22.9113 58.1176C22.5634 57.9609 22.1244 57.8825 21.5941 57.8825H19.7361V68.6457H16.9809ZM24.0184 62.724L27.2572 68.6457H24.2157L21.0469 62.724H24.0184Z" fill="#EEEEEE"/>
<path d="M30.986 68.6457H28.0335L32.5322 55.6333H36.0828L40.5751 68.6457H37.6227L34.3584 58.6069H34.2566L30.986 68.6457ZM30.8015 63.531H37.7754V65.6785H30.8015V63.531ZM33.3658 54.3753L31.425 51.4844H33.9257L35.2811 54.3753H33.3658Z" fill="#EEEEEE"/>
<path d="M44.8988 55.6333V68.6457H42.1436V55.6333H44.8988Z" fill="#EEEEEE"/>
<path d="M47.1657 68.6457V55.6333H49.9209V66.3774H55.5077V68.6457H47.1657Z" fill="#EEEEEE"/>
<path d="M57.3323 68.6457V55.6333H66.1133V57.9016H60.0875V61.0022H65.6615V63.2705H60.0875V66.3774H66.1388V68.6457H57.3323Z" fill="#EEEEEE"/>
<path d="M68.3038 68.6457V55.6333H73.4451C74.4293 55.6333 75.2692 55.8091 75.9649 56.1607C76.6649 56.508 77.1972 57.0015 77.562 57.6411C77.9311 58.2765 78.1156 59.0241 78.1156 59.8839C78.1156 60.748 77.929 61.4914 77.5557 62.1141C77.1824 62.7325 76.6415 63.2069 75.9331 63.5373C75.2289 63.8677 74.3763 64.0329 73.3752 64.0329H69.9327V61.8218H72.9297C73.4557 61.8218 73.8927 61.7498 74.2405 61.6058C74.5884 61.4618 74.8471 61.2457 75.0168 60.9577C75.1908 60.6697 75.2777 60.3118 75.2777 59.8839C75.2777 59.4519 75.1908 59.0876 75.0168 58.7911C74.8471 58.4946 74.5863 58.2701 74.2342 58.1176C73.8863 57.9609 73.4473 57.8825 72.917 57.8825H71.059V68.6457H68.3038ZM75.3413 62.724L78.5801 68.6457H75.5386L72.3698 62.724H75.3413Z" fill="#EEEEEE"/>
<path fill-rule="evenodd" clip-rule="evenodd" d="M35.3553 44.9084L53.2235 30.709L35.3553 16.5097V44.9084ZM35.3552 15.374C35.3552 15.3779 35.3552 15.3819 35.3552 15.3858L35.3552 15.374ZM56.8021 32.6414L37.5218 47.9628C37.0385 48.3493 36.4211 48.6129 35.7482 48.72C35.0753 48.8271 34.3774 48.7728 33.7436 48.564C33.1097 48.3553 32.5686 48.0015 32.1892 47.5478C31.8098 47.0942 31.6093 46.5612 31.6133 46.0168V15.4013C31.6093 14.8569 31.8098 14.3239 32.1892 13.8703C32.5686 13.4166 33.1097 13.0628 33.7436 12.8541C34.3774 12.6453 35.0753 12.591 35.7482 12.6981C36.4211 12.8052 37.0385 13.0688 37.5218 13.4553L56.8021 28.7767C57.4456 29.2903 57.8068 29.985 57.8068 30.7091C57.8068 31.4331 57.4456 32.1278 56.8021 32.6414Z" fill="#EEEEEE"/>
</svg>
