<svg xmlns="http://www.w3.org/2000/svg" width="24" height="24" viewBox="0 0 24 24">
    <g fill="none" fill-opacity=".5" fill-rule="evenodd">
        <g fill="#FFF">
            <g>
                <g>
                    <g>
                        <path d="M1.067 14.77c-.59 0-1.067.477-1.067 1.066v3.2c0 2.356 1.91 4.267 4.267 4.267H19.2c2.356 0 4.267-1.91 4.267-4.267v-3.2c0-.589-.478-1.067-1.067-1.067s-1.067.478-1.067 1.067v3.2c0 1.178-.955 2.133-2.133 2.133H4.267c-1.178 0-2.134-.955-2.134-2.133v-3.2c0-.589-.478-1.067-1.066-1.067" transform="translate(-257 -696) translate(55 565) translate(135 131) translate(67)"/>
                        <path d="M11.828 17.958c.59 0 1.067-.477 1.067-1.066V3.558l2.464 2.358c.408.425 1.083.439 1.508.03.425-.407.44-1.083.031-1.508-.021-.022-.044-.043-.067-.064L12.564.294c-.412-.392-1.06-.392-1.472 0l-4.266 4.08c-.444.388-.488 1.062-.1 1.505.387.444 1.061.489 1.504.1.024-.02.046-.04.068-.063l2.464-2.347v13.333c.006.585.481 1.056 1.066 1.056" transform="translate(-257 -696) translate(55 565) translate(135 131) translate(67)"/>
                    </g>
                </g>
            </g>
        </g>
    </g>
</svg>
