<?xml version="1.0" standalone="no"?>
<!DOCTYPE svg PUBLIC "-//W3C//DTD SVG 20010904//EN"
 "http://www.w3.org/TR/2001/REC-SVG-20010904/DTD/svg10.dtd">
<svg version="1.0" xmlns="http://www.w3.org/2000/svg"
 width="640.000000pt" height="349.000000pt" viewBox="0 0 640.000000 349.000000"
 preserveAspectRatio="xMidYMid meet">
<defs>
    <linearGradient id="grad" x1="0%" y1="0%" x2="100%" y2="100%">
	  <stop offset="0%" style="stop-color:rgb(40,86,229);stop-opacity:1" />
      <stop offset="100%" style="stop-color:rgb(1,148,255);stop-opacity:1" /> 
    </linearGradient>
  </defs>
<g transform="translate(0.000000,349.000000) scale(0.100000,-0.100000)"
fill="url(#grad)" stroke="none">
<path d="M4156 3441 c-515 -270 -677 -350 -971 -481 -651 -291 -1173 -500
-1882 -754 -364 -130 -668 -236 -675 -236 -7 0 -96 68 -198 150 -228 187 -224
186 -311 65 -32 -44 -72 -104 -90 -132 -28 -47 -30 -56 -19 -80 13 -31 480
-394 515 -401 11 -2 103 26 204 63 100 37 184 65 186 63 2 -2 -113 -363 -255
-803 -143 -440 -260 -812 -260 -827 0 -16 9 -37 20 -48 19 -19 33 -20 276 -20
l255 0 57 52 c31 29 128 122 214 207 87 85 159 153 162 151 2 -3 41 -88 85
-190 45 -102 91 -193 102 -202 19 -16 52 -18 356 -18 331 0 365 3 385 34 22
33 5 67 -107 210 -63 81 -115 149 -115 153 0 9 121 222 129 227 4 3 189 -22
412 -56 l404 -60 245 -243 c135 -134 255 -248 267 -254 29 -15 606 -15 634 0
11 5 25 22 30 37 10 24 -2 53 -111 272 l-122 245 193 297 c107 163 197 296
201 295 17 -5 527 -684 523 -697 -2 -8 -9 -70 -16 -138 -14 -133 -11 -147 32
-169 34 -18 554 -18 588 0 17 8 93 136 252 426 126 228 230 415 231 417 2 1
79 -38 171 -88 180 -97 201 -102 233 -53 9 14 14 34 10 48 -3 13 -71 83 -151
156 -80 73 -145 137 -145 143 0 6 50 100 110 209 70 126 110 210 110 228 0 22
-12 41 -47 74 -187 175 -1989 1766 -2005 1770 -13 4 -54 -12 -112 -42z m210
-794 c80 -352 144 -641 142 -643 -2 -2 -190 231 -418 518 -227 287 -409 523
-404 525 5 2 124 64 264 137 217 114 256 132 262 118 5 -10 73 -304 154 -655z
m571 76 c307 -273 624 -555 705 -627 80 -72 145 -133 143 -135 -4 -4 -1255
636 -1269 649 -6 6 -146 587 -146 607 0 10 62 -44 567 -494z m-1447 220 c0
-13 -150 -1006 -156 -1032 -3 -13 -9 -20 -13 -15 -9 10 -358 781 -363 801 -2
8 97 59 257 132 272 124 275 126 275 114z m609 -648 c350 -443 448 -572 438
-581 -34 -33 -1330 -964 -1335 -960 -2 3 48 202 112 443 l116 438 90 605 c49
333 92 616 96 629 4 21 7 22 19 10 7 -8 216 -270 464 -584z m-1530 -144 c-95
-254 -175 -461 -179 -461 -7 0 -290 640 -290 655 0 9 631 276 638 270 2 -2
-74 -211 -169 -464z m514 -60 l207 -460 -120 -447 c-66 -246 -122 -449 -124
-451 -6 -6 -571 771 -569 782 3 9 294 795 359 968 14 37 29 67 32 67 4 0 100
-207 215 -459z m2285 -71 c435 -223 791 -409 792 -413 0 -13 -164 -307 -172
-307 -3 0 -121 105 -261 234 -140 128 -265 236 -278 239 -13 3 -100 13 -192
23 -164 17 -169 17 -187 -2 -22 -23 -130 -274 -130 -303 0 -22 21 -47 242
-289 135 -147 152 -162 182 -162 42 0 52 12 98 119 20 47 41 87 46 89 8 2 335
-169 350 -183 2 -2 -49 -101 -115 -219 -92 -168 -122 -216 -138 -216 -11 0
-140 -13 -287 -28 l-268 -28 0 23 c0 13 14 141 31 285 21 185 27 268 20 284
-5 12 -95 145 -200 297 l-190 275 -76 329 c-41 180 -78 336 -81 346 -4 13 -1
18 9 15 8 -1 370 -185 805 -408z m-3221 -128 c86 -194 154 -354 152 -356 -17
-13 -1320 -443 -1317 -435 7 21 993 1149 1001 1146 5 -1 79 -161 164 -355z
m-377 331 c0 -4 -17 -25 -39 -48 -21 -22 -208 -236 -416 -475 -208 -239 -382
-436 -386 -438 -5 -2 -4 9 1 25 5 15 59 183 120 373 61 189 113 347 116 350 5
5 581 217 597 219 4 1 7 -2 7 -6z m-1359 -263 c95 -77 181 -140 192 -140 11 0
102 30 204 66 101 36 186 64 189 62 2 -3 -2 -22 -9 -43 l-13 -38 -204 -73
c-113 -41 -210 -74 -216 -74 -10 0 -336 243 -378 281 -9 8 43 99 57 99 4 0 84
-63 178 -140z m4895 -303 l101 -13 221 -204 c122 -112 220 -205 218 -207 -2
-2 -83 39 -181 91 -97 53 -184 96 -193 96 -34 0 -60 -30 -92 -110 -19 -44 -36
-80 -39 -79 -6 1 -129 136 -215 235 l-38 44 33 80 c38 92 23 87 185 67z m-492
-307 c86 -124 156 -232 156 -240 0 -26 -49 -422 -53 -426 -5 -5 -461 591 -460
602 0 15 187 294 195 291 4 -1 77 -103 162 -227z m-696 -324 l-253 -385 -285
-1 c-172 0 -280 4 -275 9 23 22 1060 770 1063 766 2 -2 -110 -177 -250 -389z
m-1454 -10 c140 -193 254 -351 253 -352 -3 -3 -1043 154 -1077 162 -23 6 -1
30 260 285 219 214 288 275 297 266 6 -7 126 -169 267 -361z m-644 210 c-58
-58 -316 -310 -575 -560 -419 -406 -471 -453 -477 -433 -14 44 -140 658 -136
662 6 6 1270 434 1283 434 5 1 -37 -46 -95 -103z m-130 -546 c80 -11 153 -24
162 -28 15 -6 8 -23 -49 -122 -37 -63 -66 -127 -66 -141 0 -23 65 -116 161
-231 14 -17 3 -18 -214 -18 l-230 0 -82 187 -82 187 97 99 c89 89 101 98 128
93 17 -3 95 -15 175 -26z m-1100 -273 c27 -132 50 -245 50 -253 0 -11 -26 -14
-141 -14 -123 0 -140 2 -135 15 3 9 40 123 82 253 42 130 79 241 82 247 8 12
5 23 62 -248z m3153 -82 c48 -96 87 -177 87 -180 0 -3 -96 -5 -213 -5 l-212 0
-180 180 -180 180 305 0 305 0 88 -175z m1597 158 c-1 -5 -25 -51 -54 -103
l-53 -95 -212 -3 -212 -2 5 32 c3 18 8 54 11 79 l6 46 232 22 c128 13 237 24
242 26 19 6 35 5 35 -2z"/>
</g>
</svg>
