<svg xmlns="http://www.w3.org/2000/svg" width="24" height="26" viewBox="0 0 24 26">
    <g fill="none" fill-rule="evenodd" opacity=".87">
        <g fill="#FFF">
            <g>
                <path d="M8.01 16.622l2.252 2.252 4.991-4.99c.267-.266.7-.266.968 0 .266.268.266.701 0 .968l-5.474 5.474c-.267.267-.7.267-.968 0l-2.736-2.737c-.267-.267-.267-.7 0-.967.266-.267.7-.267.967 0zm13.884-8.41H1.368v15.736c0 .378.306.684.684.684H21.21c.379 0 .684-.306.684-.684V8.211zm-2.737-5.474h2.053c1.136 0 2.052.918 2.052 2.052v19.158c0 1.133-.916 2.053-2.052 2.053H2.052c-1.134 0-2.053-.92-2.053-2.053V4.79c0-1.134.919-2.052 2.053-2.052h2.053V.685c0-.38.306-.684.684-.684.379 0 .684.305.684.684v2.053h5.474V.685c0-.38.306-.684.684-.684.379 0 .684.305.684.684v2.053h5.474V.685c0-.38.306-.684.684-.684.38 0 .684.305.684.684v2.053zm0 1.368v.684c0 .378-.305.684-.684.684-.378 0-.684-.306-.684-.684v-.684h-5.474v.684c0 .378-.305.684-.684.684-.378 0-.684-.306-.684-.684v-.684H5.473v.684c0 .378-.305.684-.684.684-.378 0-.684-.306-.684-.684v-.684H2.052c-.378 0-.684.305-.684.684v2.053h20.526V4.79c0-.379-.305-.684-.684-.684h-2.053z" transform="translate(-55 -178) translate(55 178)"/>
            </g>
        </g>
    </g>
</svg>
