<svg width="30px" height="29px" viewBox="0 0 30 29" version="1.1" xmlns="http://www.w3.org/2000/svg" xmlns:xlink="http://www.w3.org/1999/xlink">
    <title>26FF0C00-F0D9-4BD8-9B56-D25D62025E7D</title>
    <g id="Page-1" stroke="none" stroke-width="1" fill="none" fill-rule="evenodd">
        <g id="TheBetter-Grid-Event--Details" transform="translate(-205.000000, -971.000000)" fill="#FFA726">
            <g id="Group-26" transform="translate(55.000000, 926.000000)">
                <path d="M151.428571,56.3170732 L178.571429,56.3170732 L178.571429,71.8780488 C178.571429,72.2822805 178.265357,72.5853659 177.857143,72.5853659 L152.142857,72.5853659 C151.734643,72.5853659 151.428571,72.2822805 151.428571,71.8780488 L151.428571,56.3170732 Z M152.142857,49.9512195 L155.714286,49.9512195 L155.714286,51.3658537 C155.714286,52.5293902 156.6825,53.4878049 157.857143,53.4878049 C159.031786,53.4878049 160,52.5293902 160,51.3658537 L160,49.9512195 L170,49.9512195 L170,51.3658537 C170,52.5293902 170.968214,53.4878049 172.142857,53.4878049 C173.3175,53.4878049 174.285714,52.5293902 174.285714,51.3658537 L174.285714,49.9512195 L177.857143,49.9512195 C178.265357,49.9512195 178.571429,50.2543049 178.571429,50.6585366 L178.571429,54.902439 L151.428571,54.902439 L151.428571,50.6585366 C151.428571,50.2543049 151.734643,49.9512195 152.142857,49.9512195 L152.142857,49.9512195 Z M172.142857,46.4146341 C172.551071,46.4146341 172.857143,46.7177195 172.857143,47.1219512 L172.857143,51.3658537 C172.857143,51.7700854 172.551071,52.0731707 172.142857,52.0731707 C171.734643,52.0731707 171.428571,51.7700854 171.428571,51.3658537 L171.428571,47.1219512 C171.428571,46.7177195 171.734643,46.4146341 172.142857,46.4146341 L172.142857,46.4146341 Z M157.857143,46.4146341 C158.265357,46.4146341 158.571429,46.7177195 158.571429,47.1219512 L158.571429,51.3658537 C158.571429,51.7700854 158.265357,52.0731707 157.857143,52.0731707 C157.448929,52.0731707 157.142857,51.7700854 157.142857,51.3658537 L157.142857,47.1219512 C157.142857,46.7177195 157.448929,46.4146341 157.857143,46.4146341 L157.857143,46.4146341 Z M157.857143,45 C156.6825,45 155.714286,45.9584146 155.714286,47.1219512 L155.714286,48.5365854 L152.142857,48.5365854 C150.968214,48.5365854 150,49.495 150,50.6585366 L150,71.8780488 C150,73.0415854 150.968214,74 152.142857,74 L177.857143,74 C179.031786,74 180,73.0415854 180,71.8780488 L180,50.6585366 C180,49.495 179.031786,48.5365854 177.857143,48.5365854 L174.285714,48.5365854 L174.285714,47.1219512 C174.285714,45.9584146 173.3175,45 172.142857,45 C170.968214,45 170,45.9584146 170,47.1219512 L170,48.5365854 L160,48.5365854 L160,47.1219512 C160,45.9584146 159.031786,45 157.857143,45 L157.857143,45 Z" id="icon/cal"></path>
            </g>
        </g>
    </g>
</svg>