<svg width="49" height="49" viewBox="0 0 49 49" fill="none" xmlns="http://www.w3.org/2000/svg">
<path d="M39.4711 29.9456C37.9274 29.9469 36.4072 30.3237 35.0417 31.0437C33.6761 31.7636 32.5063 32.805 31.6331 34.078L18.3439 28.0775C19.2878 25.7983 19.2914 23.2381 18.3541 20.9562L31.6249 14.9251C32.9191 16.7968 34.8412 18.1427 37.0427 18.7186C39.2441 19.2945 41.5791 19.0623 43.624 18.0642C45.669 17.066 47.2884 15.3679 48.1886 13.278C49.0889 11.1881 49.2102 8.84474 48.5307 6.67303C47.8511 4.50131 46.4157 2.64507 44.4848 1.44101C42.5539 0.236959 40.2554 -0.235159 38.0063 0.110298C35.7571 0.455755 33.7062 1.59591 32.2257 3.32394C30.7451 5.05197 29.9329 7.25342 29.9365 9.52896C29.9451 10.0676 29.9998 10.6044 30.0998 11.1337L15.9919 17.5445C14.6369 16.2751 12.9406 15.429 11.1114 15.1104C9.28223 14.7917 7.39979 15.0143 5.69537 15.7509C3.99094 16.4874 2.53878 17.7057 1.51727 19.2562C0.495768 20.8067 -0.0505849 22.6218 -0.0546645 24.4786C-0.058744 26.3353 0.479628 28.1528 1.49431 29.7078C2.50899 31.2627 3.95579 32.4874 5.65696 33.2314C7.35813 33.9754 9.23957 34.2063 11.0702 33.8957C12.9007 33.5851 14.6007 32.7465 15.9613 31.483L30.1059 37.8693C30.0077 38.3982 29.9537 38.9343 29.9446 39.4721C29.9442 41.3568 30.5028 43.1993 31.5496 44.7665C32.5965 46.3338 34.0846 47.5554 35.8258 48.2769C37.5669 48.9983 39.483 49.1872 41.3315 48.8196C43.18 48.452 44.878 47.5444 46.2107 46.2117C47.5434 44.879 48.451 43.181 48.8186 41.3325C49.1862 39.484 48.9973 37.568 48.2758 35.8268C47.5544 34.0856 46.3328 32.5975 44.7655 31.5506C43.1983 30.5038 41.3558 29.9452 39.4711 29.9456ZM39.4711 4.08384C40.5481 4.08344 41.601 4.40244 42.4968 5.00052C43.3925 5.59859 44.0907 6.44886 44.5031 7.44379C44.9156 8.43872 45.0237 9.53362 44.8138 10.59C44.604 11.6464 44.0855 12.6168 43.3241 13.3785C42.5627 14.1402 41.5924 14.659 40.5361 14.8693C39.4798 15.0796 38.3849 14.9719 37.3898 14.5598C36.3947 14.1477 35.5442 13.4498 34.9458 12.5543C34.3474 11.6588 34.028 10.606 34.028 9.52896C34.029 8.08551 34.6028 6.70146 35.6233 5.68059C36.6438 4.65973 38.0276 4.08546 39.4711 4.08384ZM9.52796 29.9456C8.45093 29.946 7.39797 29.627 6.50226 29.029C5.60654 28.4309 4.90831 27.5806 4.49587 26.5857C4.08343 25.5908 3.97531 24.4959 4.18518 23.4395C4.39505 22.3831 4.91348 21.4127 5.67492 20.6509C6.43635 19.8892 7.40657 19.3704 8.46288 19.1602C9.51919 18.9499 10.6141 19.0576 11.6092 19.4697C12.6043 19.8817 13.4548 20.5797 14.0532 21.4751C14.6516 22.3706 14.971 23.4235 14.971 24.5005C14.9694 25.9438 14.3955 27.3275 13.3751 28.3483C12.3548 29.369 10.9713 29.9435 9.52796 29.9456ZM39.4711 44.9172C38.3941 44.9172 37.3413 44.5978 36.4459 43.9995C35.5505 43.4012 34.8525 42.5508 34.4404 41.5558C34.0283 40.5608 33.9204 39.466 34.1306 38.4098C34.3407 37.3535 34.8592 36.3833 35.6208 35.6218C36.3823 34.8603 37.3525 34.3417 38.4088 34.1316C39.465 33.9215 40.5598 34.0293 41.5548 34.4414C42.5498 34.8535 43.4002 35.5515 43.9985 36.4469C44.5968 37.3424 44.9162 38.3951 44.9162 39.4721C44.9151 40.9159 44.3411 42.3002 43.3201 43.3211C42.2992 44.3421 40.9149 44.9161 39.4711 44.9172Z" fill="#EEEEEE"/>
</svg>
