<svg xmlns="http://www.w3.org/2000/svg" width="18" height="14" viewBox="0 0 18 14">
    <g fill="none" fill-rule="evenodd">
        <g fill="#FFA726" stroke="#FFA726">
            <g>
                <g>
                    <path d="M100.442.95c.12-.1.18-.23.18-.384 0-.155-.06-.29-.18-.408-.102-.104-.23-.157-.385-.158-.155.001-.291.054-.408.158L89.19 10.642 85.95 7.404c-.101-.104-.23-.157-.385-.159-.155.002-.29.055-.408.159-.104.117-.157.252-.158.407.001.155.054.284.158.385l3.623 3.623c.117.12.253.18.408.181.155-.001.283-.062.385-.181L100.442.95z" transform="translate(-140 -331) translate(56 323) translate(0 9)"/>
                </g>
            </g>
        </g>
    </g>
</svg>
