<svg xmlns="http://www.w3.org/2000/svg" width="32" height="32" viewBox="0 0 32 32">
    <path fill="#FFF" fill-rule="evenodd" d="M15.655 11.396c-1.191 0-2.157-.966-2.157-2.158 0-1.191.966-2.157 2.157-2.157 1.192 0 2.158.966 2.158 2.157 0 1.192-.966 2.158-2.158 2.158M13.83 22.319v-7.132c0-.994.817-1.8 1.825-1.8 1.009 0 1.826.806 1.826 1.8v7.132c0 .994-.817 1.8-1.826 1.8-1.008 0-1.825-.806-1.825-1.8M15.6 0C6.985 0 0 6.985 0 15.6c0 8.615 6.985 15.6 15.6 15.6 8.615 0 15.6-6.985 15.6-15.6C31.2 6.985 24.215 0 15.6 0"/>
</svg>
