<svg xmlns="http://www.w3.org/2000/svg" width="26" height="27" viewBox="0 0 26 27">
    <g fill="none" fill-rule="evenodd">
        <g fill="#FFF">
            <g>
                <g>
                    <g>
                        <path d="M12.882 23.383c-6.156 0-11.164-4.823-11.164-10.75 0-5.929 5.008-10.751 11.164-10.751s11.164 4.822 11.164 10.75-5.008 10.75-11.164 10.75m0-23.155C5.779.227 0 5.792 0 12.632c0 6.84 5.779 12.405 12.882 12.405s12.882-5.565 12.882-12.405c0-6.84-5.779-12.405-12.882-12.405" transform="translate(-224 -178) translate(55 178) translate(169) translate(0 .508)"/>
                        <path d="M13.74 6.43L12.023 6.43 12.023 11.806 6.441 11.806 6.441 13.459 12.023 13.459 12.023 18.835 13.74 18.835 13.74 13.459 19.323 13.459 19.323 11.806 13.74 11.806z" transform="translate(-224 -178) translate(55 178) translate(169) translate(0 .508)"/>
                    </g>
                </g>
            </g>
        </g>
    </g>
</svg>
