<svg width="93" height="93" viewBox="0 0 93 93" fill="none" xmlns="http://www.w3.org/2000/svg">
<g clip-path="url(#clip0_9_230)">
<path d="M46.5 0C37.3032 0 28.3129 2.72718 20.666 7.83666C13.0191 12.9461 7.0591 20.2085 3.53962 28.7052C0.0201478 37.202 -0.900707 46.5516 0.893505 55.5717C2.68772 64.5918 7.11641 72.8773 13.6196 79.3805C20.1227 85.8836 28.4082 90.3123 37.4283 92.1065C46.4484 93.9007 55.798 92.9799 64.2948 89.4604C72.7916 85.9409 80.0539 79.9809 85.1634 72.334C90.2728 64.6871 93 55.6968 93 46.5C93 34.1674 88.1009 22.34 79.3805 13.6195C70.66 4.89909 58.8326 0 46.5 0V0ZM46.5 85.25C38.836 85.25 31.3441 82.9774 24.9717 78.7195C18.5993 74.4615 13.6326 68.4096 10.6997 61.329C7.76679 54.2484 6.99941 46.457 8.49459 38.9403C9.98977 31.4235 13.6803 24.5189 19.0996 19.0996C24.5189 13.6803 31.4235 9.98975 38.9403 8.49457C46.457 6.99939 54.2484 7.76677 61.329 10.6997C68.4096 13.6326 74.4616 18.5993 78.7195 24.9717C82.9774 31.3441 85.25 38.836 85.25 46.5C85.25 56.7771 81.1674 66.6334 73.9004 73.9004C66.6334 81.1674 56.7772 85.25 46.5 85.25Z" fill="white"/>
<path d="M60.1506 48.5506C60.6945 48.0068 61 47.2691 61 46.5C61 45.7309 60.6945 44.9932 60.1506 44.4494C59.6068 43.9055 58.8691 43.6 58.1 43.6H49.4V34.9C49.4 34.1309 49.0945 33.3932 48.5506 32.8494C48.0068 32.3055 47.2691 32 46.5 32C45.7309 32 44.9932 32.3055 44.4494 32.8494C43.9055 33.3932 43.6 34.1309 43.6 34.9V43.6H34.9C34.1309 43.6 33.3932 43.9055 32.8494 44.4494C32.3055 44.9932 32 45.7309 32 46.5C32 47.2691 32.3055 48.0068 32.8494 48.5506C33.3932 49.0945 34.1309 49.4 34.9 49.4H43.6V58.1C43.6 58.8691 43.9055 59.6068 44.4494 60.1506C44.9932 60.6945 45.7309 61 46.5 61C47.2691 61 48.0068 60.6945 48.5506 60.1506C49.0945 59.6068 49.4 58.8691 49.4 58.1V49.4H58.1C58.8691 49.4 59.6068 49.0945 60.1506 48.5506Z" fill="white"/>
</g>
<defs>
<clipPath id="clip0_9_230">
<rect width="93" height="93" fill="white"/>
</clipPath>
</defs>
</svg>
