<svg width="28" height="28" viewBox="0 0 28 28" fill="none" xmlns="http://www.w3.org/2000/svg">
    <path d="M12.736 16.656V16.016C12.736 15.5147 12.832 15.0507 13.024 14.624C13.216 14.1973 13.5467 13.7333 14.016 13.232C14.368 12.8587 14.6133 12.5333 14.752 12.256C14.9013 11.968 14.976 11.68 14.976 11.392C14.976 11.0293 14.8373 10.7467 14.56 10.544C14.2933 10.3413 13.92 10.24 13.44 10.24C13.024 10.24 12.6133 10.304 12.208 10.432C11.8027 10.56 11.4187 10.7307 11.056 10.944V9.216C11.4293 9.00267 11.8507 8.84267 12.32 8.736C12.8 8.61867 13.2693 8.56 13.728 8.56C14.3573 8.56 14.9173 8.656 15.408 8.848C15.9093 9.02933 16.2987 9.312 16.576 9.696C16.864 10.0693 17.008 10.5493 17.008 11.136C17.008 11.488 16.944 11.8293 16.816 12.16C16.6987 12.48 16.528 12.7893 16.304 13.088C16.08 13.3867 15.8027 13.6853 15.472 13.984C14.9493 14.4427 14.5867 14.8427 14.384 15.184C14.1813 15.5253 14.0587 15.8667 14.016 16.208L13.952 16.656H12.736ZM12.224 20V17.776H14.464V20H12.224Z" fill="#EEEEEE" />
    <circle cx="14" cy="14" r="13" stroke="#EEEEEE" stroke-width="2" />
</svg>
    