<svg width="26" height="27" viewBox="0 0 26 27" fill="none" xmlns="http://www.w3.org/2000/svg">
<path d="M25.6821 24.6271L19.2157 18.1607C20.9779 16.0055 21.8443 13.2554 21.6357 10.4794C21.4271 7.70328 20.1595 5.11357 18.0951 3.24589C16.0306 1.37821 13.3273 0.37546 10.5443 0.445044C7.76127 0.514629 5.11145 1.65123 3.14293 3.61974C1.17442 5.58826 0.0378219 8.23808 -0.0317626 11.0211C-0.101347 13.8041 0.901406 16.5074 2.76908 18.5719C4.63676 20.6363 7.22647 21.9039 10.0025 22.1125C12.7786 22.3211 15.5287 21.4547 17.6839 19.6925L24.1503 26.1589C24.3546 26.3563 24.6282 26.4654 24.9123 26.463C25.1963 26.4605 25.4681 26.3466 25.6689 26.1457C25.8698 25.9449 25.9837 25.6731 25.9862 25.3891C25.9886 25.1051 25.8794 24.8314 25.6821 24.6271ZM10.8329 19.9763C9.11875 19.9763 7.44314 19.468 6.01791 18.5157C4.59269 17.5634 3.48186 16.2099 2.8259 14.6263C2.16994 13.0426 1.99831 11.3 2.33271 9.61888C2.66712 7.93771 3.49254 6.39346 4.70459 5.1814C5.91665 3.96935 7.4609 3.14393 9.14207 2.80952C10.8232 2.47512 12.5658 2.64674 14.1494 3.3027C15.7331 3.95866 17.0866 5.06949 18.0389 6.49472C18.9912 7.91994 19.4995 9.59556 19.4995 11.3097C19.4969 13.6074 18.583 15.8103 16.9583 17.4351C15.3335 19.0598 13.1306 19.9737 10.8329 19.9763Z" fill="#EEEEEE"/>
</svg>
