<svg xmlns="http://www.w3.org/2000/svg" width="61" height="66" viewBox="0 0 61 66">
    <defs>
        <linearGradient id="5ru5c9q2ua" x1="100%" x2="0%" y1="50%" y2="50%">
            <stop offset="0%" stop-color="#FB8C00"/>
            <stop offset="100%" stop-color="#FFCE00"/>
        </linearGradient>
    </defs>
    <g fill="none" fill-rule="evenodd">
        <g fill="url(#5ru5c9q2ua)" transform="translate(-1544 -581)">
            <g>
                <g>
                    <path d="M100.3 3l-3.16 5.466c1.95 1.122 3.738 2.5 5.355 4.114 2.379 2.375 4.245 5.138 5.546 8.215 1.347 3.183 2.03 6.562 2.03 10.053 0 3.49-.683 6.876-2.03 10.052-1.301 3.078-3.167 5.84-5.546 8.215-2.379 2.376-5.146 4.24-8.228 5.539-3.18 1.351-6.571 2.034-10.067 2.034-3.496 0-6.887-.683-10.067-2.028-3.082-1.3-5.849-3.163-8.228-5.538-2.379-2.375-4.245-5.138-5.546-8.215-1.347-3.183-2.03-6.562-2.03-10.053 0-2.25.288-4.475.854-6.627.552-2.08 1.366-4.094 2.424-5.978 2.084-3.714 5.087-6.896 8.688-9.186.322-.203.644-.4.972-.59L68.1 3c-.414.236-.815.486-1.216.735C57.934 9.45 52 19.457 52 30.848 52 48.604 66.418 63 84.2 63c17.782 0 32.2-14.396 32.2-32.152 0-11.897-6.473-22.29-16.1-27.848z" transform="translate(1279 463) translate(211 118) rotate(-90 84.2 33)"/>
                </g>
            </g>
        </g>
    </g>
</svg>
