<svg xmlns="http://www.w3.org/2000/svg" xmlns:xlink="http://www.w3.org/1999/xlink" width="26" height="30" viewBox="0 0 26 30">
    <defs>
        <path id="ilpov37gda" d="M0 0L25.281 0 25.281 30 0 30z"/>
    </defs>
    <g fill="none" fill-rule="evenodd" opacity=".6">
        <g>
            <g>
                <g>
                    <g>
                        <g transform="translate(-973 -757) translate(57 711) translate(610 46) translate(306)">
                            <mask id="2mlr5n0uub" fill="#fff">
                                <use xlink:href="#ilpov37gda"/>
                            </mask>
                            <path fill="#FFF" d="M21.573 25.947c0 1.486-1.21 2.705-2.696 2.705H6.404c-1.487 0-2.696-1.219-2.696-2.705V4.719h17.865v21.228zM8.764 3.367c0-1.191 1.053-2.019 2.244-2.019h3.686c1.19 0 2.16.828 2.16 2.018v.005h-8.09v-.005zm15.843.004h-2.265c-.031-.005-.062-.01-.095-.01-.032 0-.063.005-.095.01h-3.95v-.005C18.202 1.432 16.63 0 14.694 0h-3.686C9.073 0 7.416 1.432 7.416 3.366v.005H3.128c-.03-.005-.062-.01-.094-.01-.033 0-.064.005-.095.01H.674c-.372 0-.674.302-.674.674 0 .372.302.674.674.674H2.36v21.228C2.36 28.177 4.174 30 6.404 30h12.473c2.23 0 4.044-1.823 4.044-4.053V4.719h1.686c.372 0 .674-.302.674-.674 0-.372-.302-.674-.674-.674z" mask="url(#2mlr5n0uub)"/>
                        </g>
                        <path fill="#FFF" d="M8.09 24.944c.372 0 .674-.302.674-.674V9.1c0-.372-.302-.674-.674-.674-.372 0-.674.302-.674.674V24.27c0 .372.302.674.674.674M12.809 24.944c.372 0 .674-.302.674-.674V9.1c0-.372-.302-.674-.674-.674-.372 0-.674.302-.674.674V24.27c0 .372.302.674.674.674M17.528 24.944c.372 0 .674-.302.674-.674V9.1c0-.372-.302-.674-.674-.674-.372 0-.674.302-.674.674V24.27c0 .372.302.674.674.674" transform="translate(-973 -757) translate(57 711) translate(610 46) translate(306)"/>
                    </g>
                </g>
            </g>
        </g>
    </g>
</svg>
