<svg width="26" height="27" viewBox="0 0 26 27" fill="none" xmlns="http://www.w3.org/2000/svg">
<g clip-path="url(#clip0_2615_6293)">
<path d="M13 13.4756C14.2856 13.4756 15.5423 13.0944 16.6112 12.3801C17.6801 11.6659 18.5132 10.6508 19.0052 9.46303C19.4972 8.27531 19.6259 6.96838 19.3751 5.7075C19.1243 4.44663 18.5052 3.28844 17.5962 2.37939C16.6872 1.47035 15.529 0.851288 14.2681 0.600485C13.0072 0.349681 11.7003 0.478402 10.5126 0.970372C9.32484 1.46234 8.30968 2.29546 7.59545 3.36438C6.88122 4.4333 6.5 5.69001 6.5 6.97559C6.50172 8.69897 7.18709 10.3513 8.40571 11.5699C9.62432 12.7885 11.2766 13.4739 13 13.4756ZM13 2.64226C13.8571 2.64226 14.6949 2.8964 15.4075 3.37255C16.1201 3.84871 16.6755 4.52548 17.0035 5.31729C17.3315 6.10911 17.4173 6.9804 17.2501 7.82098C17.0829 8.66156 16.6702 9.43369 16.0641 10.0397C15.4581 10.6457 14.686 11.0585 13.8454 11.2257C13.0048 11.3929 12.1335 11.307 11.3417 10.9791C10.5499 10.6511 9.87312 10.0957 9.39697 9.38306C8.92081 8.67045 8.66667 7.83264 8.66667 6.97559C8.66667 5.82632 9.12321 4.72412 9.93587 3.91146C10.7485 3.0988 11.8507 2.64226 13 2.64226Z" fill="#EEEEEE"/>
<path d="M13 15.6428C10.415 15.6457 7.93673 16.6738 6.10888 18.5017C4.28102 20.3296 3.25287 22.8078 3.25 25.3928C3.25 25.6801 3.36414 25.9557 3.5673 26.1589C3.77047 26.362 4.04602 26.4762 4.33333 26.4762C4.62065 26.4762 4.8962 26.362 5.09937 26.1589C5.30253 25.9557 5.41667 25.6801 5.41667 25.3928C5.41667 23.3816 6.21562 21.4527 7.63777 20.0306C9.05992 18.6084 10.9888 17.8095 13 17.8095C15.0112 17.8095 16.9401 18.6084 18.3622 20.0306C19.7844 21.4527 20.5833 23.3816 20.5833 25.3928C20.5833 25.6801 20.6975 25.9557 20.9006 26.1589C21.1038 26.362 21.3793 26.4762 21.6667 26.4762C21.954 26.4762 22.2295 26.362 22.4327 26.1589C22.6359 25.9557 22.75 25.6801 22.75 25.3928C22.7471 22.8078 21.719 20.3296 19.8911 18.5017C18.0633 16.6738 15.585 15.6457 13 15.6428Z" fill="#EEEEEE"/>
</g>
<defs>
<clipPath id="clip0_2615_6293">
<rect width="26" height="26" fill="white" transform="translate(0 0.475586)"/>
</clipPath>
</defs>
</svg>
