<svg width="86" height="86" viewBox="0 0 86 86" fill="none" xmlns="http://www.w3.org/2000/svg">
<g clip-path="url(#clip0_1120_62829)">
<path d="M43.4453 0.738281C35.0396 0.738281 26.8227 3.23086 19.8336 7.90082C12.8445 12.5708 7.39718 19.2084 4.18045 26.9742C0.963727 34.7401 0.122085 43.2854 1.76196 51.5296C3.40183 59.7738 7.44956 67.3466 13.3933 73.2903C19.337 79.2341 26.9098 83.2818 35.154 84.9217C43.3982 86.5615 51.9435 85.7199 59.7094 82.5032C67.4752 79.2864 74.1128 73.8391 78.7828 66.85C83.4528 59.8609 85.9453 51.644 85.9453 43.2383C85.9453 31.9666 81.4677 21.1565 73.4974 13.1862C65.5271 5.21595 54.717 0.738281 43.4453 0.738281V0.738281ZM43.4453 78.655C36.4406 78.655 29.5931 76.5778 23.7689 72.6862C17.9446 68.7945 13.4052 63.2632 10.7246 56.7917C8.04399 50.3201 7.34263 43.199 8.70919 36.3288C10.0757 29.4587 13.4489 23.148 18.402 18.1949C23.3551 13.2418 29.6657 9.8687 36.5359 8.50214C43.406 7.13558 50.5272 7.83695 56.9987 10.5175C63.4703 13.1982 69.0016 17.7376 72.8932 23.5618C76.7848 29.3861 78.862 36.2335 78.862 43.2383C78.862 52.6314 75.1306 61.6397 68.4887 68.2817C61.8468 74.9236 52.8384 78.655 43.4453 78.655Z" fill="#EEEEEE"/>
<path d="M37.1768 56.0291L37.1768 56.0291V56.0176V30.4592H37.1769L37.1768 30.4477C37.1764 30.4002 37.1914 30.3021 37.3087 30.168C37.4322 30.0266 37.6549 29.8676 37.986 29.7632C38.3149 29.6596 38.6919 29.6296 39.0579 29.6853C39.4254 29.7413 39.7209 29.8739 39.9192 30.0257L39.9192 30.0257L39.923 30.0285L56.7393 42.8174C56.7397 42.8176 56.74 42.8179 56.7404 42.8181C57 43.0168 57.0262 43.1839 57.0262 43.2384C57.0262 43.2929 57 43.46 56.7402 43.6587C56.7399 43.6589 56.7396 43.6591 56.7393 43.6594L39.9229 56.4482L39.9192 56.451C39.7209 56.6028 39.4254 56.7354 39.0579 56.7914C38.6919 56.8471 38.3149 56.8171 37.986 56.7135L37.5458 58.1101L37.986 56.7135C37.6549 56.6091 37.4322 56.4501 37.3087 56.3087C37.1914 56.1746 37.1764 56.0765 37.1768 56.0291Z" stroke="white" stroke-width="3" stroke-linejoin="round"/>
</g>
<defs>
<clipPath id="clip0_1120_62829">
<rect width="85" height="85" fill="white" transform="translate(0.945312 0.738281)"/>
</clipPath>
</defs>
</svg>
