<svg width="1.2rem" height="1.2rem" viewBox="0 0 22 22" fill="none" xmlns="http://www.w3.org/2000/svg">
  <path
    d="M10.9984 0C17.0738 0 21.9989 4.92506 21.9989 11.0006C21.9989 17.0749 17.0738 22 10.9984 22C4.92286 22 1.84212e-07 17.0749 1.84212e-07 11.0006C-0.00109965 4.92506 4.92286 0 10.9984 0ZM10.994 9.07364C10.7244 9.07401 10.4644 9.17334 10.2633 9.35277C10.0621 9.5322 9.93391 9.77925 9.90291 10.047L9.89522 10.1746L9.89962 16.2259L9.90621 16.3545C9.93722 16.6228 10.0658 16.8702 10.2675 17.0498C10.4692 17.2293 10.7299 17.3284 10.9999 17.3281C11.2699 17.3278 11.5304 17.2282 11.7317 17.0483C11.933 16.8684 12.0611 16.6206 12.0916 16.3523L12.0982 16.2237L12.0938 10.1735L12.0861 10.0448C12.0543 9.77727 11.9254 9.53072 11.7239 9.35191C11.5224 9.1731 11.2623 9.07447 10.9929 9.07474L10.994 9.07364ZM10.9995 4.95036C10.6344 4.95036 10.2843 5.09538 10.0262 5.35351C9.76802 5.61164 9.62301 5.96175 9.62301 6.3268C9.62301 6.69186 9.76802 7.04196 10.0262 7.30009C10.2843 7.55823 10.6344 7.70324 10.9995 7.70324C11.3645 7.7031 11.7146 7.55794 11.9726 7.2997C12.2306 7.04147 12.3755 6.69131 12.3753 6.32625C12.3752 5.9612 12.23 5.61115 11.9718 5.35312C11.7136 5.09509 11.3634 4.95021 10.9984 4.95036H10.9995Z"
    fill="#4A90E2" />
</svg>