<svg xmlns="http://www.w3.org/2000/svg" xmlns:xlink="http://www.w3.org/1999/xlink" width="275" height="30" viewBox="0 0 275 30">
    <defs>
        <path id="prefix__a" d="M0 0.102L23.908 0.102 23.908 29.764 0 29.764z"/>
        <path id="prefix__c" d="M0.099 0.102L22.995 0.102 22.995 29.764 0.099 29.764z"/>
        <path id="prefix__e" d="M0.182 0.057L24.964 0.057 24.964 30 0.182 30z"/>
        <path id="prefix__g" d="M0.208 0.102L22.871 0.102 22.871 29.764 0.208 29.764z"/>
        <path id="prefix__i" d="M0.144 0.102L22.806 0.102 22.806 29.764 0.144 29.764z"/>
        <path id="prefix__k" d="M0.064 0.147L24.973 0.147 24.973 29.764 0.064 29.764z"/>
        <path id="prefix__m" d="M0.138 0.174L5.805 0.174 5.805 5.984 0.138 5.984z"/>
    </defs>
    <g fill="none" fill-rule="evenodd">
        <mask id="prefix__b" fill="#fff">
            <use xlink:href="#prefix__a"/>
        </mask>
        <path fill="#D51317" d="M23.61.418c.198.21.298.54.298.991v3.742c0 .45-.1.782-.298.991-.2.211-.543.316-1.03.316h-7.008v21.998c0 .481-.107.82-.32 1.015-.215.196-.55.293-1.008.293H9.71c-.458 0-.795-.097-1.008-.293-.214-.195-.32-.534-.32-1.015V6.458H1.327c-.489 0-.832-.105-1.03-.316-.2-.21-.298-.54-.298-.991V1.409C0 .96.099.628.298.418.496.208.839.102 1.328.102H22.58c.487 0 .83.106 1.03.316" mask="url(#prefix__b)"/>
        <path fill="#D51317" d="M51.687.286c.208.192.313.522.313.992v26.444c0 .47-.105.8-.313.992-.209.191-.536.286-.983.286h-4.425c-.447 0-.775-.095-.983-.286-.209-.191-.313-.522-.313-.992v-9.96h-9.966v9.96c0 .5-.105.837-.313 1.014-.209.176-.536.264-.983.264h-4.425c-.447 0-.775-.095-.983-.286-.209-.191-.313-.522-.313-.992V1.278c0-.47.104-.8.313-.992.208-.19.536-.286.983-.286h4.425c.447 0 .774.088.983.264.208.177.313.515.313 1.014v9.96h9.966v-9.96c0-.47.104-.8.313-.992.208-.19.536-.286.983-.286h4.425c.447 0 .774.096.983.286"/>
        <g transform="translate(58)">
            <mask id="prefix__d" fill="#fff">
                <use xlink:href="#prefix__c"/>
            </mask>
            <path fill="#D51317" d="M22.701 23.768c.196.211.294.541.294.992v3.697c0 .45-.098.781-.294.991-.197.21-.536.316-1.018.316H1.41c-.483 0-.822-.105-1.018-.316-.197-.21-.294-.54-.294-.991V1.409c0-.45.097-.781.294-.992C.589.207.928.102 1.411.102h19.502c.483 0 .822.106 1.019.315.196.21.294.541.294.992v3.742c0 .45-.098.781-.294.991-.197.21-.536.316-1.019.316H7.248v4.914h12.127c.482 0 .821.105 1.018.315.196.21.295.541.295.992v3.516c0 .451-.099.782-.295.992-.197.21-.536.315-1.018.315H7.248v5.95h14.435c.482 0 .821.106 1.018.316" mask="url(#prefix__d)"/>
        </g>
        <g transform="translate(98)">
            <mask id="prefix__f" fill="#fff">
                <use xlink:href="#prefix__e"/>
            </mask>
            <path fill="#FFF" d="M17.94 20.595c0-1-.324-1.711-.972-2.136-.648-.424-1.546-.636-2.695-.636h-1.016c-.471 0-.802-.106-.994-.318-.191-.212-.287-.545-.287-1v-3.453c0-.454.096-.787.287-1 .192-.211.523-.317.994-.317h.575c2.444 0 3.666-.91 3.666-2.727 0-.969-.302-1.635-.905-1.999-.605-.364-1.524-.545-2.761-.545H7.117v17.084h7.421c2.268 0 3.402-.984 3.402-2.953m4.417-5.203c.619.47 1.208 1.204 1.767 2.204.56 1 .84 2.226.84 3.68 0 2.817-.958 4.975-2.872 6.475S17.631 30 14.45 30H1.463c-.472 0-.803-.106-.994-.318-.192-.212-.287-.545-.287-1V1.375c0-.455.095-.787.287-1C.66.164.99.057 1.463.057h12.369c2.297 0 4.218.38 5.764 1.136 1.547.757 2.688 1.757 3.424 2.999.736 1.242 1.104 2.606 1.104 4.09 0 1.938-.375 3.384-1.126 4.338-.751.955-1.451 1.584-2.098 1.886.353.121.839.417 1.457.886" mask="url(#prefix__f)"/>
        </g>
        <g transform="translate(129)">
            <mask id="prefix__h" fill="#fff">
                <use xlink:href="#prefix__g"/>
            </mask>
            <path fill="#FFF" d="M22.58 23.768c.194.211.29.541.29.992v3.697c0 .45-.096.781-.29.991-.195.21-.531.316-1.008.316H1.507c-.478 0-.814-.105-1.008-.316-.194-.21-.29-.54-.29-.991V1.409c0-.45.096-.781.29-.992.194-.21.53-.315 1.008-.315h19.304c.477 0 .813.106 1.007.315.194.21.291.541.291.992v3.742c0 .45-.097.781-.29.991-.195.21-.531.316-1.008.316H7.285v4.914h12.003c.477 0 .813.105 1.008.315.193.21.29.541.29.992v3.516c0 .451-.097.782-.29.992-.195.21-.531.315-1.008.315H7.285v5.95h14.287c.477 0 .813.106 1.008.316" mask="url(#prefix__h)"/>
        </g>
        <path fill="#FFF" d="M178.701.309c.199.205.299.528.299.97v3.657c0 .44-.1.765-.299.97-.2.206-.544.308-1.034.308h-7.035v21.508c0 .47-.107.8-.322.992-.214.191-.551.286-1.011.286h-4.552c-.46 0-.798-.095-1.011-.286-.215-.191-.322-.522-.322-.992V6.214h-7.08c-.491 0-.836-.102-1.035-.308-.2-.205-.299-.53-.299-.97V1.278c0-.44.099-.764.299-.97.199-.205.544-.308 1.034-.308h21.334c.49 0 .835.103 1.034.309"/>
        <path fill="#FFF" d="M203.713.309c.19.205.287.528.287.97v3.657c0 .44-.096.765-.287.97-.193.206-.525.308-.996.308h-6.768v21.508c0 .47-.104.8-.31.992-.206.191-.53.286-.973.286h-4.38c-.442 0-.767-.095-.973-.286-.206-.191-.31-.522-.31-.992V6.214h-20.72c-.472 0-.804-.102-.996-.308-.192-.205-.287-.53-.287-.97V1.278c0-.44.095-.764.287-.97.192-.205.524-.308.996-.308h34.434c.471 0 .803.103.996.309"/>
        <g transform="translate(209)">
            <mask id="prefix__j" fill="#fff">
                <use xlink:href="#prefix__i"/>
            </mask>
            <path fill="#FFF" d="M22.515 23.768c.194.211.291.541.291.992v3.697c0 .45-.097.781-.29.991-.195.21-.531.316-1.008.316H1.443c-.478 0-.814-.105-1.008-.316-.194-.21-.29-.54-.29-.991V1.409c0-.45.096-.781.29-.992C.63.207.965.102 1.443.102h19.303c.477 0 .814.106 1.008.315.194.21.291.541.291.992v3.742c0 .45-.097.781-.29.991-.195.21-.532.316-1.009.316H7.22v4.914h12.004c.477 0 .813.105 1.007.315.194.21.291.541.291.992v3.516c0 .451-.097.782-.29.992-.195.21-.531.315-1.008.315H7.22v5.95h14.288c.477 0 .813.106 1.007.316" mask="url(#prefix__j)"/>
        </g>
        <g transform="translate(236)">
            <mask id="prefix__l" fill="#fff">
                <use xlink:href="#prefix__k"/>
            </mask>
            <path fill="#FFF" d="M24.973 28.952c0 .241-.076.437-.23.586-.152.151-.366.226-.641.226h-5.413c-.52 0-.949-.105-1.285-.316-.337-.21-.673-.556-1.01-1.036l-4.953-7.258c-.215-.27-.352-.564-.413-.88-.062-.315-.092-.788-.092-1.42v-3.606c0-.45.099-.78.298-.991.199-.21.543-.316 1.033-.316h.917c1.162 0 2.179-.353 3.05-1.06.872-.705 1.308-1.57 1.308-2.591 0-1.142-.398-2.066-1.193-2.773-.796-.705-1.805-1.06-3.028-1.06h-6.1v22c0 .48-.108.819-.322 1.014-.214.196-.55.293-1.01.293H1.35c-.43 0-.75-.097-.964-.293-.214-.195-.32-.533-.32-1.015V1.454c0-.45.09-.78.274-.991C.523.253.86.147 1.35.147h11.56c2.385 0 4.243.225 5.573.676 1.33.45 2.516 1.188 3.555 2.21.856.81 1.514 1.832 1.973 3.064.459 1.233.688 2.57.688 4.012 0 1.473-.32 2.833-.963 4.08-.643 1.247-1.453 2.292-2.432 3.133-.979.842-1.972 1.428-2.981 1.758l6.468 9.241c.122.211.183.421.183.631" mask="url(#prefix__l)"/>
        </g>
        <path fill="#FFF" d="M268.938.064c.041.043.062.11.062.2v.757c0 .091-.02.158-.062.201-.042.043-.114.064-.216.064h-1.465v4.45c0 .097-.023.165-.067.205-.045.04-.115.059-.211.059h-.948c-.096 0-.166-.02-.211-.06-.045-.039-.067-.107-.067-.204v-4.45h-1.475c-.102 0-.174-.021-.216-.064-.041-.043-.062-.11-.062-.2V.264c0-.092.02-.158.062-.201.042-.043.114-.064.216-.064h4.444c.102 0 .174.021.216.064"/>
        <g transform="translate(269)">
            <mask id="prefix__n" fill="#fff">
                <use xlink:href="#prefix__m"/>
            </mask>
            <path fill="#FFF" d="M5.746.236c.04.041.06.106.06.194v5.298c0 .095-.022.16-.065.199-.043.038-.11.057-.201.057h-.88c-.09 0-.158-.019-.2-.057-.044-.038-.065-.104-.065-.199V2.74L3.48 4.282c-.08.124-.168.186-.266.186h-.458c-.061 0-.11-.018-.146-.053-.037-.035-.073-.08-.11-.133L1.575 2.74v2.988c0 .095-.021.16-.064.199-.042.038-.11.057-.201.057H.403c-.091 0-.159-.019-.201-.057-.043-.038-.064-.104-.064-.199V.43c0-.088.02-.153.06-.194C.236.195.305.174.403.174h.906c.11 0 .19.02.242.062.052.041.092.087.12.136.027.05.047.084.059.102l1.254 2.169L4.25.473c.012-.017.032-.053.06-.11.027-.055.07-.1.127-.136.058-.035.133-.053.225-.053h.879c.097 0 .166.02.206.062" mask="url(#prefix__n)"/>
        </g>
    </g>
</svg>
